<?xml version="1.0" encoding="iso-8859-1"?>
<!-- Generator: Adobe Illustrator 19.0.0, SVG Export Plug-In . SVG Version: 6.00 Build 0)  -->
<svg version="1.1" id="Layer_1" xmlns="http://www.w3.org/2000/svg" xmlns:xlink="http://www.w3.org/1999/xlink" x="0px" y="0px"
	 viewBox="0 0 512 512" style="enable-background:new 0 0 512 512;" xml:space="preserve">
<path style="fill:#ffcc29;" d="M256,325.818c-12.853,0-23.273,10.42-23.273,23.273v139.636C232.727,501.58,243.147,512,256,512
	c12.853,0,23.273-10.42,23.273-23.273V349.091C279.273,336.238,268.853,325.818,256,325.818z"/>
<path style="fill:#f58634;" d="M256,325.818V512c12.853,0,23.273-10.42,23.273-23.273V349.091
	C279.273,336.238,268.853,325.818,256,325.818z"/>
<path style="fill:#81b214;" d="M418.909,0H93.091C80.238,0,69.818,10.42,69.818,23.273v325.818c0,12.853,10.42,23.273,23.273,23.273
	h325.818c12.853,0,23.273-10.42,23.273-23.273V23.273C442.182,10.42,431.762,0,418.909,0z"/>
<path style="fill:#206a5d;" d="M418.909,0H256v372.364h162.909c12.853,0,23.273-10.42,23.273-23.273V23.273
	C442.182,10.42,431.762,0,418.909,0z"/>
<path style="fill:#f5fcc1;" d="M279.273,93.091h-46.545c-12.853,0-23.273,10.42-23.273,23.273v46.545v46.545V256
	c0,12.853,10.42,23.273,23.273,23.273C245.58,279.273,256,268.853,256,256v-23.273h23.273c38.499,0,69.818-31.319,69.818-69.818
	S317.772,93.091,279.273,93.091z M279.273,186.182H256v-23.273v-23.273h23.273c12.833,0,23.273,10.44,23.273,23.273
	S292.105,186.182,279.273,186.182z"/>
<path style="fill:#e5edb7;" d="M279.273,93.091H256v46.545h23.273c12.833,0,23.273,10.44,23.273,23.273s-10.44,23.273-23.273,23.273
	H256v46.545h23.273c38.499,0,69.818-31.319,69.818-69.818S317.772,93.091,279.273,93.091z"/>
<g>
</g>
<g>
</g>
<g>
</g>
<g>
</g>
<g>
</g>
<g>
</g>
<g>
</g>
<g>
</g>
<g>
</g>
<g>
</g>
<g>
</g>
<g>
</g>
<g>
</g>
<g>
</g>
<g>
</g>
</svg>
